<svg width="1504" height="412" viewBox="0 0 1504 412" fill="none" xmlns="http://www.w3.org/2000/svg">
<path d="M11.16 55.8H56.73V186H11.16V55.8ZM146.421 91.326C173.577 91.326 193.107 106.02 193.107 139.5V139.686C193.107 173.166 173.577 187.86 146.421 187.86C132.471 187.86 121.683 183.768 114.243 175.956V186H76.6712V55.8H120.753V97.836C127.449 93.558 136.005 91.326 146.421 91.326ZM148.839 139.5V139.314C148.839 121.086 143.445 114.762 134.703 114.762C125.775 114.762 120.753 121.458 120.753 138.384V140.616C120.753 157.728 125.775 164.424 134.703 164.424C143.445 164.424 148.839 157.728 148.839 139.5ZM260.298 91.326C291.918 91.326 312.936 100.254 312.936 124.62V186H274.248V175.026C267.738 183.21 256.392 187.674 240.396 187.674C216.588 187.674 202.824 178.002 202.824 159.774V159.588C202.824 142.662 214.914 133.176 237.42 131.502L270.156 128.898V125.178C270.156 117.924 265.878 114.762 257.88 114.762C249.51 114.762 245.046 118.296 245.046 124.62V125.364H206.172V124.62C206.172 101.556 220.308 91.326 260.298 91.326ZM255.834 164.424C265.32 164.424 270.156 159.402 270.156 151.404V145.452L256.95 146.382C247.836 146.94 244.488 150.288 244.488 155.496V155.868C244.488 161.262 248.58 164.424 255.834 164.424ZM398.344 97.836V55.986H442.24V186.186H404.668V175.956C397.414 183.768 386.626 187.86 372.49 187.86C345.334 187.86 325.804 173.166 325.804 139.686V139.5C325.804 106.02 345.334 91.326 372.49 91.326C382.906 91.326 391.462 93.558 398.344 97.836ZM398.344 140.616V138.384C398.344 121.458 393.136 114.762 384.394 114.762C375.466 114.762 370.258 121.086 370.258 139.314V139.5C370.258 157.728 375.466 164.424 384.394 164.424C393.136 164.424 398.344 157.728 398.344 140.616ZM513.324 91.326C544.944 91.326 565.962 100.254 565.962 124.62V186H527.274V175.026C520.764 183.21 509.418 187.674 493.422 187.674C469.614 187.674 455.85 178.002 455.85 159.774V159.588C455.85 142.662 467.94 133.176 490.446 131.502L523.182 128.898V125.178C523.182 117.924 518.904 114.762 510.906 114.762C502.536 114.762 498.072 118.296 498.072 124.62V125.364H459.198V124.62C459.198 101.556 473.334 91.326 513.324 91.326ZM508.86 164.424C518.346 164.424 523.182 159.402 523.182 151.404V145.452L509.976 146.382C500.862 146.94 497.514 150.288 497.514 155.496V155.868C497.514 161.262 501.606 164.424 508.86 164.424ZM654.345 91.326C678.339 91.326 693.405 102.858 693.405 126.48V186H650.811V130.758C650.811 124.434 646.719 120.9 640.209 120.9C631.095 120.9 624.771 126.294 624.771 137.826V143.778V186H582.177V93H619.005V104.718C627.375 95.418 639.837 91.326 654.345 91.326Z" fill="#224093"/>
<path d="M10.048 210.2H162.592V250.296H113.76V367H58.88V250.296H10.048V210.2ZM326.415 210.2V248.728H237.039V270.008H317.007V304.056H237.039V328.696H326.191V367H182.159V210.2H326.415ZM428.466 369.24C372.69 369.24 339.762 341.24 339.762 287.928V287.704C339.762 235.512 372.466 208.184 428.69 208.184C479.314 208.184 509.778 231.032 510.674 269.56V270.68H458.482V269.784C458.034 254.552 446.61 245.592 429.586 245.592C409.65 245.592 397.33 259.704 397.33 287.704V287.928C397.33 316.6 409.65 331.832 429.81 331.832C447.058 331.832 458.034 321.528 458.482 304.504V304.056H510.674V305.176C509.778 345.944 479.762 369.24 428.466 369.24ZM638.538 267.544V210.424H693.418V367.224H638.538V308.76H587.914V367.224H533.034V210.424H587.914V267.544H638.538ZM924.696 210.2V248.728H835.32V270.008H915.288V304.056H835.32V328.696H924.472V367H780.44V210.2H924.696ZM1068.96 288.824L1123.17 367.224H1059.11L1030.43 321.976L1002.66 367.224H940.835L994.595 287.48L943.747 210.424H1007.59L1033.35 252.984L1059.11 210.424H1121.15L1068.96 288.824ZM1215.76 210.2C1269.52 210.2 1295.72 230.36 1295.72 265.08V265.304C1295.72 302.04 1269.52 323.992 1215.76 323.992H1195.82V367H1140.94V210.2H1215.76ZM1238.16 267.544V267.32C1238.16 254.104 1228.3 247.608 1213.07 247.608H1195.82V289.272H1213.07C1228.3 289.272 1238.16 282.104 1238.16 267.544ZM1400.36 369.24C1344.8 369.24 1312.32 338.776 1312.32 287.704V287.256C1312.32 237.528 1344.8 208.184 1400.36 208.184C1456.13 208.184 1488.84 237.528 1488.84 287.256V287.704C1488.84 338.776 1456.13 369.24 1400.36 369.24ZM1400.36 331.832C1420.52 331.832 1431.27 315.704 1431.27 287.704V287.256C1431.27 259.704 1420.52 245.592 1400.36 245.592C1380.42 245.592 1369.89 259.704 1369.89 287.256V287.704C1369.89 315.704 1380.42 331.832 1400.36 331.832Z" fill="#224093"/>
</svg>
