<svg width="38" height="37" viewBox="0 0 38 37" fill="none" xmlns="http://www.w3.org/2000/svg">
<path d="M19.092 0.189453C8.98032 0.189453 0.783447 8.38632 0.783447 18.498C0.783447 28.6096 8.98032 36.8065 19.092 36.8065C29.2036 36.8065 37.4005 28.6096 37.4005 18.498C37.4005 8.38632 29.2036 0.189453 19.092 0.189453ZM14.6102 26.0865H10.9027V14.1554H14.6102V26.0865ZM12.7336 12.6907C11.5626 12.6907 10.8054 11.8611 10.8054 10.8351C10.8054 9.78807 11.5855 8.98326 12.7812 8.98326C13.977 8.98326 14.7094 9.78807 14.7322 10.8351C14.7322 11.8611 13.977 12.6907 12.7336 12.6907ZM28.1508 26.0865H24.4434V19.4744C24.4434 17.9354 23.9056 16.8902 22.5648 16.8902C21.5407 16.8902 20.9323 17.5978 20.6634 18.2786C20.5643 18.5208 20.5395 18.8641 20.5395 19.2055V26.0845H16.8301V17.9601C16.8301 16.4707 16.7824 15.2253 16.7328 14.1535H19.954L20.1237 15.8108H20.1981C20.6863 15.0327 21.8821 13.8846 23.8827 13.8846C26.3219 13.8846 28.1508 15.519 28.1508 19.032V26.0865Z" fill="#F8F8F8"/>
</svg>
