<svg width="867" height="224" viewBox="0 0 867 224" fill="none" xmlns="http://www.w3.org/2000/svg">
<path d="M57 100H44.5L41.4 87.5H20.2L17 100H4.6L23.9 30H37.7L57 100ZM30.8 45.7L22.5 78.4H39.1L30.8 45.7ZM85.6641 49.3C95.1641 49.3 102.664 55.1 102.664 69V81.1C102.664 95 95.1641 100.8 85.6641 100.8C80.1641 100.9 75.9641 98.6 73.3641 94.1V100H63.7641V30H74.9641V53.6C77.5641 50.7 81.2641 49.3 85.6641 49.3ZM90.8641 80.5V69.5C90.8641 61.5 87.9641 58 82.9641 58C77.8641 58 74.9641 61.7 74.9641 69.7V80.4C74.9641 88.4 77.8641 92.1 82.9641 92.1C87.9641 92 90.8641 88.5 90.8641 80.5ZM129.123 100.8C116.723 100.8 109.723 93.6 109.723 80.8V69.2C109.723 56.5 116.723 49.3 129.123 49.3C141.623 49.3 148.723 56.5 148.723 69.2V80.8C148.723 93.6 141.623 100.8 129.123 100.8ZM129.223 92.3C134.123 92.3 137.123 88.8 137.123 81V69C137.123 61.3 134.123 57.8 129.223 57.8C124.323 57.8 121.323 61.3 121.323 69V81C121.323 88.7 124.323 92.3 129.223 92.3ZM182.916 81V50H194.116V100H184.916V93.5C182.016 98.4 177.216 100.8 171.416 100.8C162.616 100.8 156.916 96.1 156.916 86.1V50.1H168.216V84.5C168.216 88.8 170.416 91 174.516 91C179.316 91 182.916 88 182.916 81ZM223.698 92.2C225.098 92.2 226.598 92.1 228.198 91.8V100.2C225.398 100.6 222.998 100.9 220.698 100.9C210.598 100.9 205.898 96.5 205.898 87V58.4H200.198V50.1H205.898V39.7H217.198V50.1H227.998V58.4H217.198V85.9C217.198 90.5 219.298 92.2 223.698 92.2ZM257.447 30H269.547V100H257.447V30ZM303.047 49.3C312.547 49.3 320.047 55.1 320.047 69V81.1C320.047 95 312.547 100.8 303.047 100.8C297.547 100.9 293.347 98.6 290.747 94.1V100H281.147V30H292.347V53.6C294.947 50.7 298.647 49.3 303.047 49.3ZM308.247 80.5V69.5C308.247 61.5 305.347 58 300.347 58C295.247 58 292.347 61.7 292.347 69.7V80.4C292.347 88.4 295.247 92.1 300.347 92.1C305.347 92 308.247 88.5 308.247 80.5ZM345.41 49.3C356.21 49.3 363.51 53.5 363.51 64.1V100H353.41V94.8C351.01 98.5 346.91 100.6 341.01 100.6C332.41 100.6 326.31 96.1 326.31 87.2V85.2C326.31 77.2 331.51 72.6 340.71 71.4L352.21 69.9V64.9C352.21 60.3 350.51 57.7 345.01 57.7C340.61 57.7 338.01 60.4 338.01 64.4V66.5H328.01V63.8C328.01 54.7 334.31 49.3 345.41 49.3ZM343.41 92.2C349.01 92.2 352.21 88.5 352.21 82.8V77L343.21 78.1C339.41 78.5 337.11 80.7 337.11 84.2V86.2C337.11 90 339.31 92.2 343.41 92.2ZM399.337 53.6V30.1H410.537V100.1H400.937V94.1C398.337 98.6 394.137 100.9 388.637 100.9C379.137 100.8 371.637 95 371.637 81.1V69C371.637 55.1 379.137 49.3 388.637 49.3C393.037 49.3 396.737 50.7 399.337 53.6ZM399.337 80.4V69.7C399.337 61.7 396.437 57.9 391.337 57.9C386.337 57.9 383.237 61.6 383.237 69.5V80.5C383.237 88.5 386.337 92.2 391.337 92.2C396.437 92.2 399.337 88.4 399.337 80.4ZM437.695 49.3C448.495 49.3 455.795 53.5 455.795 64.1V100H445.695V94.8C443.295 98.5 439.195 100.6 433.295 100.6C424.695 100.6 418.595 96.1 418.595 87.2V85.2C418.595 77.2 423.795 72.6 432.995 71.4L444.495 69.9V64.9C444.495 60.3 442.795 57.7 437.295 57.7C432.895 57.7 430.295 60.4 430.295 64.4V66.5H420.295V63.8C420.295 54.7 426.595 49.3 437.695 49.3ZM435.695 92.2C441.295 92.2 444.495 88.5 444.495 82.8V77L435.495 78.1C431.695 78.5 429.395 80.7 429.395 84.2V86.2C429.395 90 431.595 92.2 435.695 92.2ZM488.222 49.3C497.022 49.3 502.722 54 502.722 64V100.1H491.422V65.6C491.422 61.3 489.222 59.1 485.222 59.1C480.322 59.1 476.722 62.1 476.722 69.1V74V100H465.522V50H474.722V56.4C477.622 51.6 482.422 49.3 488.222 49.3Z" fill="#FDB915"/>
<path d="M3.51 107H92.04V130.27H63.7V198H31.85V130.27H3.51V107ZM187.116 107V129.36H135.246V141.71H181.656V161.47H135.246V175.77H186.986V198H103.396V107H187.116ZM246.342 199.3C213.972 199.3 194.862 183.05 194.862 152.11V151.98C194.862 121.69 213.842 105.83 246.472 105.83C275.852 105.83 293.532 119.09 294.052 141.45V142.1H263.762V141.58C263.502 132.74 256.872 127.54 246.992 127.54C235.422 127.54 228.272 135.73 228.272 151.98V152.11C228.272 168.75 235.422 177.59 247.122 177.59C257.132 177.59 263.502 171.61 263.762 161.73V161.47H294.052V162.12C293.532 185.78 276.112 199.3 246.342 199.3ZM368.259 140.28V107.13H400.109V198.13H368.259V164.2H338.879V198.13H307.029V107.13H338.879V140.28H368.259ZM534.333 107V129.36H482.463V141.71H528.873V161.47H482.463V175.77H534.203V198H450.613V107H534.333ZM618.059 152.63L649.519 198.13H612.339L595.699 171.87L579.579 198.13H543.699L574.899 151.85L545.389 107.13H582.439L597.389 131.83L612.339 107.13H648.349L618.059 152.63ZM703.251 107C734.451 107 749.661 118.7 749.661 138.85V138.98C749.661 160.3 734.451 173.04 703.251 173.04H691.681V198H659.831V107H703.251ZM716.251 140.28V140.15C716.251 132.48 710.531 128.71 701.691 128.71H691.681V152.89H701.691C710.531 152.89 716.251 148.73 716.251 140.28ZM810.385 199.3C778.145 199.3 759.295 181.62 759.295 151.98V151.72C759.295 122.86 778.145 105.83 810.385 105.83C842.755 105.83 861.735 122.86 861.735 151.72V151.98C861.735 181.62 842.755 199.3 810.385 199.3ZM810.385 177.59C822.085 177.59 828.325 168.23 828.325 151.98V151.72C828.325 135.73 822.085 127.54 810.385 127.54C798.815 127.54 792.705 135.73 792.705 151.72V151.98C792.705 168.23 798.815 177.59 810.385 177.59Z" fill="#224093"/>
</svg>
