<svg width="38" height="39" viewBox="0 0 38 39" fill="none" xmlns="http://www.w3.org/2000/svg">
<path d="M18.953 0.986328C8.84249 0.986328 0.644531 9.27547 0.644531 19.4985C0.644531 29.7215 8.84249 38.0106 18.953 38.0106C29.0636 38.0106 37.2615 29.7215 37.2615 19.4985C37.2615 9.27547 29.0636 0.986328 18.953 0.986328ZM27.7517 14.9407C27.764 15.1349 27.764 15.3374 27.764 15.5357C27.764 21.6018 23.1951 28.5893 14.8459 28.5893C12.2712 28.5893 9.88461 27.8331 7.87394 26.5314C8.24174 26.5728 8.5932 26.5893 8.96918 26.5893C11.0943 26.5893 13.0477 25.862 14.6048 24.6306C12.6104 24.5893 10.9349 23.267 10.3628 21.4489C11.0616 21.5522 11.6909 21.5522 12.4102 21.3662C11.3833 21.1553 10.4603 20.5914 9.79803 19.7703C9.13575 18.9492 8.77501 17.9217 8.7771 16.8621V16.8043C9.37785 17.1473 10.0849 17.358 10.8246 17.3869C10.2027 16.9679 9.69277 16.4002 9.33989 15.7342C8.98702 15.0682 8.80213 14.3244 8.80163 13.5688C8.80163 12.7134 9.02231 11.9325 9.41872 11.2548C10.5585 12.6735 11.9808 13.8338 13.5932 14.6604C15.2055 15.4869 16.9718 15.9611 18.7773 16.0522C18.1357 12.9324 20.4406 10.4077 23.2114 10.4077C24.5192 10.4077 25.6961 10.9614 26.5257 11.854C27.5515 11.6597 28.5323 11.2713 29.4069 10.7507C29.0677 11.8126 28.3566 12.7093 27.4125 13.2754C28.328 13.1762 29.2107 12.9201 30.028 12.5606C29.411 13.4779 28.6386 14.2919 27.7517 14.9407Z" fill="white"/>
</svg>
